<svg version="1" xmlns="http://www.w3.org/2000/svg" width="682.667" height="682.667" viewBox="0 0 512.000000 512.000000"><path d="M237.9.4c-.2.2-4 .6-8.3 1-4.4.4-8.2.9-8.5 1.1-.4.2-3.4.7-6.6 1-10.9 1.3-38.7 8.7-49 13-1.6.7-5.5 2.3-8.5 3.5-9.4 3.8-26.1 12.4-36 18.5C54 80 9.6 151 1.3 230c-1 8.6-1 41.6-.1 51 2.2 23.4 9.8 53 19.3 75.5 2.8 6.6 13.2 27.2 15.3 30.2 1 1.5 3.9 5.9 6.3 9.8 18 28.6 47.9 57.7 78.9 77 28 17.3 63.4 30.5 93.7 35.1 2.1.3 4.9.7 6.3 1 10.1 1.9 47 2.6 60.5 1.1 59.1-6.3 113.3-31.9 154.8-73 5.3-5.2 8.7-9 17.3-18.9 23.7-27.4 46.8-75.7 52.9-110.7.3-1.9.8-3.7 1-4 .5-1 1.9-10.2 3.2-22.6 1-9.1 1-40.9.1-50.5-4.7-46.9-22.4-92.2-50.7-129.5-2.5-3.3-5-6.5-5.6-7.1-.5-.6-3-3.5-5.5-6.5-23.8-28.3-59-53.3-98.5-69.9C336 11.9 308.6 4.7 291 2.4c-2.5-.3-5.6-.8-7-1-2.9-.6-45.6-1.5-46.1-1z"/></svg>